<?xml version="1.0" encoding="iso-8859-1"?>
<!-- Generator: Adobe Illustrator 19.0.0, SVG Export Plug-In . SVG Version: 6.00 Build 0)  -->
<svg version="1.1" id="Layer_1" xmlns="http://www.w3.org/2000/svg" xmlns:xlink="http://www.w3.org/1999/xlink" x="0px" y="0px"
	 viewBox="0 0 512 512" style="enable-background:new 0 0 512 512;" xml:space="preserve">
<g>
	<g>
		<path d="M505.173,247.467L317.44,204.8h-0.853c-5.12-0.853-8.533-4.267-9.387-10.24L264.533,6.827C263.68,2.56,260.267,0,256,0
			s-7.68,2.56-8.533,6.827L204.8,195.413c-0.853,5.12-4.267,8.533-10.24,9.387L6.827,247.467C2.56,248.32,0,251.733,0,256
			s2.56,7.68,6.827,8.533L195.413,307.2c4.267,0.853,8.533,4.267,9.387,10.24l42.667,187.733C248.32,509.44,251.733,512,256,512
			s7.68-2.56,8.533-6.827L307.2,316.587c0.853-5.12,4.267-8.533,10.24-9.387l187.733-42.667C509.44,263.68,512,260.267,512,256
			S509.44,248.32,505.173,247.467z M314.027,291.84c-12.8,1.707-22.187,11.093-23.893,23.04l-34.987,151.04l-34.133-151.04
			c-1.707-12.8-11.093-22.187-23.04-23.893L46.933,256l150.187-34.987c12.8-1.707,22.187-11.093,23.893-23.04L256,46.933
			l34.133,151.893c1.707,11.947,11.947,22.187,23.893,23.893l151.04,34.987L314.027,291.84z"/>
	</g>
</g>
<g>
</g>
<g>
</g>
<g>
</g>
<g>
</g>
<g>
</g>
<g>
</g>
<g>
</g>
<g>
</g>
<g>
</g>
<g>
</g>
<g>
</g>
<g>
</g>
<g>
</g>
<g>
</g>
<g>
</g>
</svg>
