<?xml version="1.0" encoding="utf-8"?>
<!-- Generator: Adobe Illustrator 17.1.0, SVG Export Plug-In . SVG Version: 6.00 Build 0)  -->
<!DOCTYPE svg PUBLIC "-//W3C//DTD SVG 1.1//EN" "http://www.w3.org/Graphics/SVG/1.1/DTD/svg11.dtd">
<svg version="1.1" id="Layer_1" xmlns="http://www.w3.org/2000/svg" xmlns:xlink="http://www.w3.org/1999/xlink" x="0px" y="0px"
	 viewBox="0 0 119.1 94.8" enable-background="new 0 0 119.1 94.8" xml:space="preserve">
<g>
	<path fill="#0ABDDD" d="M118.8,36c0-11.8-3.5-23.3-10.1-33.2c-1.3-1.7-3.3-2.8-5.5-2.8c-1.6,0-3,0.5-4.2,1.4
		c-3.1,2.4-3.8,6.8-1.6,9.7v0.2c4.7,7.4,7.2,16,7.2,24.8s-2.4,17.3-7.1,24.7l0,0c-0.8,1.1-2.5,1.3-3.6,0.5c-0.6-0.5-0.9-1.1-1.1-1.7
		c-0.2-0.6,0-1.4,0.5-1.9v-0.2c4.1-6.4,6.3-14,6.3-21.5c0-7.7-2.2-15.1-6.1-21.5v-0.2c-1.3-1.7-3.5-2.8-5.7-2.8
		c-1.6,0-3,0.5-4.2,1.4c-1.6,1.1-2.5,2.8-2.8,4.6c-0.3,1.9,0.2,3.8,1.3,5.2c2.4,4.1,3.6,8.6,3.6,13.4s-1.1,9.1-3.5,13.2l0,0
		c-0.8,1.1-2.5,1.4-3.6,0.5c-1.3-0.9-1.4-2.4-0.6-3.6l0.2-0.2c1.6-3,2.4-6.4,2.4-9.9c0-3.5-0.8-6.9-2.5-10.1c-1.1-2-3.1-3.3-5.5-3.3
		c-1.1,0-2.2,0.3-3.3,0.9c-1.7,0.9-2.7,3.8-2.5,8.2v62.9h0.6c29.5-3.5,51.7-28.3,51.9-58V36H118.8z M114.4,36.5
		c0,25.9-18.4,48.1-43.5,53.1V31.9c0-0.2,0-0.3,0-0.6c0-1.1,0-3.8,0.6-4.1C71.7,27,72,27,72.1,27c0.6,0,1.4,0.5,2,1.4
		c0.9,1.3,1.7,4.7,1.7,7.5c0,2.7-0.6,5.2-1.7,7.4v0.2c-2,3.6-1.4,7.5,1.6,9.7c1.3,0.9,2.7,1.4,4.2,1.4c2.2,0,4.4-1.1,5.7-2.8
		C88.5,47.1,90,41.6,90,36s-1.4-11-4.2-15.7v-0.2c-0.5-0.6-0.6-1.3-0.5-1.9c0.2-0.6,0.5-1.3,1.1-1.7c1.1-0.8,2.8-0.6,3.6,0.5
		c3.5,5.7,5.3,12.3,5.3,19S93.5,49.3,90,55.2c-2.2,3.1-1.6,7.4,1.6,9.7c1.3,0.9,2.7,1.4,4.2,1.4c2.2,0,4.4-1.1,5.7-2.8
		c5.3-8.2,8-17.6,8-27.3s-2.8-19.2-8-27.3V8.6c-0.8-0.6-0.9-1.3-0.9-2c0.2-0.6,0.5-1.3,1.1-1.7c1.1-0.8,2.8-0.6,3.6,0.5
		c6,9.1,9.1,19.6,9.1,30.5V36.5L114.4,36.5z"/>
	<path fill="#0ABDDD" d="M0,36C0,24.2,3.5,12.7,10.1,2.8C11.3,1.1,13.4,0,15.7,0c1.6,0,3,0.5,4.2,1.4c3.1,2.4,3.8,6.8,1.6,9.7v0.2
		c-4.7,7.4-7.2,16-7.2,24.8s2.5,17.4,7.2,24.8l0,0c0.8,1.1,2.5,1.3,3.6,0.5c0.6-0.5,0.9-1.1,1.1-1.7c0.2-0.6,0-1.4-0.5-1.9v-0.2
		c-4.1-6.4-6.1-14-6.1-21.5c0-7.7,2.2-15.1,6.1-21.5v-0.2c1.3-1.7,3.5-2.8,5.7-2.8c1.6,0,3,0.5,4.2,1.4c1.6,1.1,2.5,2.8,2.8,4.6
		c0.3,1.9-0.2,3.8-1.3,5.2c-2.4,4.1-3.6,8.6-3.6,13.4s1.3,9.1,3.5,13.2l0,0c0.8,1.1,2.5,1.4,3.6,0.5c1.3-0.9,1.4-2.4,0.6-3.6
		L41.2,46c-1.6-3-2.4-6.4-2.4-9.9c0-3.5,0.8-6.9,2.5-10.1c1.1-2,3.1-3.3,5.5-3.3c1.1,0,2.2,0.3,3.3,0.9c1.7,0.9,2.7,3.8,2.5,8.2
		v62.9H52C22.5,91.1,0.2,66.2,0,36.5V36L0,36z M4.4,36.5c0.2,25.9,18.4,48.1,43.7,53.1V31.9c0-0.2,0-0.3,0-0.6c0-1.1,0-3.8-0.6-4.1
		C47.3,27,47,27,46.8,27c-0.6,0-1.4,0.5-2,1.4c-0.9,1.3-1.7,4.7-1.7,7.5c0,2.7,0.6,5.2,1.7,7.4v0.2c2,3.6,1.4,7.5-1.6,9.7
		c-1.3,0.9-2.7,1.4-4.2,1.4c-2.2,0-4.4-1.1-5.7-2.8c-2.8-4.7-4.4-10.2-4.4-15.9s1.4-11,4.2-15.7v-0.2c0.5-0.6,0.6-1.3,0.5-1.9
		c-0.2-0.6-0.5-1.3-1.1-1.7c-1.1-0.8-2.8-0.6-3.6,0.5c-3.5,5.7-5.3,12.3-5.3,19s1.9,13.4,5.3,19.2c2.2,3.1,1.6,7.4-1.6,9.7
		c-1.3,0.9-2.7,1.4-4.2,1.4c-2.2,0-4.4-1.1-5.7-2.8c-5.3-8.2-8.2-17.6-8.2-27.3s2.8-19.2,8-27.3V8.6c0.5-0.6,0.6-1.3,0.5-1.9
		S17.3,5.5,16.7,5c-1.1-0.8-2.8-0.6-3.6,0.5C7.5,14.6,4.4,25.1,4.4,36V36.5L4.4,36.5z"/>
</g>
</svg>
